<mxfile host="app.diagrams.net" modified="2024-01-12T13:09:40.390Z" agent="Mozilla/5.0 (Windows NT 10.0; Win64; x64; rv:121.0) Gecko/20100101 Firefox/121.0" etag="8e_9pZRC1XZZsnb2DyGj" version="22.1.16" type="github">
  <diagram name="Page-1" id="AoWErYCwUEVSbDfSlu1X">
    <mxGraphModel dx="1434" dy="754" grid="1" gridSize="10" guides="1" tooltips="1" connect="1" arrows="1" fold="1" page="1" pageScale="1" pageWidth="827" pageHeight="1169" math="0" shadow="0">
      <root>
        <mxCell id="0" />
        <mxCell id="1" parent="0" />
        <mxCell id="q_2_DS04hVZ5IBjvvpq_-3" value="" style="edgeStyle=orthogonalEdgeStyle;rounded=0;orthogonalLoop=1;jettySize=auto;html=1;fillColor=#f8cecc;strokeColor=#b85450;" edge="1" parent="1" source="q_2_DS04hVZ5IBjvvpq_-1" target="q_2_DS04hVZ5IBjvvpq_-2">
          <mxGeometry relative="1" as="geometry" />
        </mxCell>
        <mxCell id="q_2_DS04hVZ5IBjvvpq_-1" value="PDV-2477" style="ellipse;whiteSpace=wrap;html=1;aspect=fixed;fillColor=#e1d5e7;strokeColor=#9673a6;fontFamily=Lucida Console;" vertex="1" parent="1">
          <mxGeometry x="370" y="350" width="80" height="80" as="geometry" />
        </mxCell>
        <mxCell id="q_2_DS04hVZ5IBjvvpq_-5" value="" style="edgeStyle=orthogonalEdgeStyle;rounded=0;orthogonalLoop=1;jettySize=auto;html=1;fillColor=#f8cecc;strokeColor=#b85450;" edge="1" parent="1" source="q_2_DS04hVZ5IBjvvpq_-2" target="q_2_DS04hVZ5IBjvvpq_-4">
          <mxGeometry relative="1" as="geometry" />
        </mxCell>
        <mxCell id="q_2_DS04hVZ5IBjvvpq_-2" value="When selecting a product on formPdv and using weight balance if doing many times crash the system" style="whiteSpace=wrap;html=1;fontFamily=Lucida Console;fillColor=#f8cecc;strokeColor=#b85450;" vertex="1" parent="1">
          <mxGeometry x="190" y="340" width="120" height="100" as="geometry" />
        </mxCell>
        <mxCell id="q_2_DS04hVZ5IBjvvpq_-4" value="On method that read weight, added a try catch so that exception don&#39;t crash the system" style="whiteSpace=wrap;html=1;fontFamily=Lucida Console;fillColor=#f8cecc;strokeColor=#b85450;" vertex="1" parent="1">
          <mxGeometry x="180" y="140" width="140" height="100" as="geometry" />
        </mxCell>
      </root>
    </mxGraphModel>
  </diagram>
</mxfile>
